<svg xmlns="http://www.w3.org/2000/svg" viewBox="0 0 106.11 70.6"><defs><style>.cls-1{fill:#3b3735;}.cls-2{fill:#dd7b0d;stroke:#dd7b0f;stroke-miterlimit:10;}</style></defs><g id="Livello_2" data-name="Livello 2"><g id="Biglietto_da_visita_UE_-_Fronte" data-name="Biglietto da visita UE - Fronte"><g id="Elementi_grafici" data-name="Elementi grafici"><path class="cls-1" d="M62.16,70.57A3.46,3.46,0,0,1,59.9,70a2.66,2.66,0,0,1-1.37-2,2.83,2.83,0,0,1,.21-1.56l20.93-64a3.85,3.85,0,0,1,1-1.68A2.92,2.92,0,0,1,82.3,0a3.31,3.31,0,0,1,2.14.49,2.63,2.63,0,0,1,1.35,2.05,3.93,3.93,0,0,1-.13,1.62L64.73,68.24a4.07,4.07,0,0,1-1,1.6A2.84,2.84,0,0,1,62.16,70.57Z"/><path class="cls-1" d="M101.78,39.67a2.51,2.51,0,0,1,1.79-.8,2.58,2.58,0,0,1,2.54,2.54,2.49,2.49,0,0,1-.78,1.81l-15.2,15.2a2.49,2.49,0,0,1-1.81.78,2.43,2.43,0,0,1-1.78-.75,2.39,2.39,0,0,1-.76-1.79,2.53,2.53,0,0,1,.8-1.79Z"/><path class="cls-1" d="M105.31,39.58a2.53,2.53,0,0,1,.8,1.79,2.41,2.41,0,0,1-.76,1.8,2.5,2.5,0,0,1-3.59,0l-15.2-15.2a2.5,2.5,0,0,1,0-3.59,2.41,2.41,0,0,1,1.8-.76,2.53,2.53,0,0,1,1.79.8Z"/><path class="cls-2" d="M16.5,39.62a2.53,2.53,0,0,1,1.79-.8,2.6,2.6,0,0,1,2.54,2.54,2.48,2.48,0,0,1-.78,1.81L4.85,58.37A2.49,2.49,0,0,1,3,59.15a2.42,2.42,0,0,1-1.78-.74,2.41,2.41,0,0,1-.76-1.8,2.53,2.53,0,0,1,.8-1.79Z"/><path class="cls-2" d="M20,39.53a2.55,2.55,0,0,1,.8,1.8,2.58,2.58,0,0,1-2.54,2.54,2.45,2.45,0,0,1-1.81-.79L1.28,27.89A2.49,2.49,0,0,1,.5,26.08a2.44,2.44,0,0,1,.74-1.78A2.38,2.38,0,0,1,3,23.54a2.53,2.53,0,0,1,1.79.8Z"/><path class="cls-2" d="M28.13,43.07a2.53,2.53,0,0,1-1.79.8,2.6,2.6,0,0,1-2.54-2.54,2.48,2.48,0,0,1,.78-1.81l15.2-15.2a2.49,2.49,0,0,1,1.81-.78,2.56,2.56,0,0,1,2.54,2.54,2.53,2.53,0,0,1-.8,1.79Z"/><path class="cls-2" d="M24.6,43.16a2.55,2.55,0,0,1-.8-1.8,2.58,2.58,0,0,1,2.54-2.54,2.45,2.45,0,0,1,1.81.79L43.35,54.8a2.49,2.49,0,0,1,.78,1.81,2.44,2.44,0,0,1-.74,1.78,2.38,2.38,0,0,1-1.8.76,2.53,2.53,0,0,1-1.79-.8Z"/></g></g></g></svg>